<?xml version="1.0" encoding="UTF-8"?>
<svg id="Layer_2" data-name="Layer 2" xmlns="http://www.w3.org/2000/svg" viewBox="0 0 234.02 182.46">
  <g id="Layer_1-2" data-name="Layer 1">
    <g>
      <path d="M122.56,148.32h-33.65v-43.94h-19.11v43.94h-33.65V30.9c0-7.22,5.86-13.08,13.08-13.08h50.29c14.86,0,23.03,5.88,23.03,21.4v33.48c0,9.8-4.57,14.54-12.09,16.82v.33c7.35.98,12.09,5.55,12.09,15.35v43.12ZM88.92,74.66v-26.95h-19.11v26.95h19.11Z"/>
      <g>
        <path d="M56.17,182.46h-7.79v-10.18h-4.43v10.18h-7.79v-30.23h14.68c3.44,0,5.33,1.36,5.33,4.96v7.76c0,2.27-1.06,3.37-2.8,3.9v.08c1.7.23,2.8,1.29,2.8,3.56v9.99ZM48.38,165.4v-6.24h-4.43v6.24h4.43Z"/>
        <path d="M76.79,182.46h-17.55v-30.23h17.55v6.92h-9.76v4.62h9.76v6.89h-9.76v4.88h9.76v6.92Z"/>
        <path d="M100.06,182.46h-7.79v-8.13h-4.99v8.13h-7.79v-25.27c0-3.59,1.89-4.96,5.33-4.96h15.25v30.23ZM92.26,167.48v-8.32h-4.99v8.32h4.99Z"/>
        <path d="M123.7,177.7c0,3.25-1.85,4.77-5.22,4.77h-15.36v-30.23h15.36c3.22,0,5.22,1.32,5.22,4.8v20.66ZM115.91,175.54v-16.34h-4.99v16.34h4.99Z"/>
        <path d="M145.49,182.46h-19.11v-12.33c0-3.59,1.89-4.96,5.33-4.96h5.98v-5.98h-10.37v-6.96h12.86c3.4,0,5.3,1.32,5.3,4.8v10.18c0,3.59-1.89,4.88-5.33,4.88h-5.98v3.44h11.31v6.92Z"/>
        <path d="M177.46,182.46h-7.68v-13.43l-6.47,10.86h-1.02l-6.43-10.93v13.51h-7.68v-30.23h6.09l8.55,15.44,8.44-15.44h6.2v30.23Z"/>
        <path d="M198.08,182.46h-17.55v-30.23h17.55v6.92h-9.76v4.62h9.76v6.89h-9.76v4.88h9.76v6.92Z"/>
      </g>
      <rect x="126.65" y="17.82" width="33.65" height="130.5"/>
      <path d="M164.43,17.82h0c18.57,0,33.65,15.08,33.65,33.65v96.86h-33.65V17.82h0Z"/>
      <path d="M204.22,0H29.8C13.34,0,0,13.34,0,29.8v61.17c0,6.39,5.18,11.57,11.57,11.57h18.24c.99,0,1.8-.8,1.8-1.8v-11.61s0-52.5,0-52.5c0-.99-.8-1.8-1.8-1.8h-11.36c-2.78,0-5.03-2.25-5.03-5.03h0c0-9.05,7.34-16.39,16.39-16.39h174.41c9.05,0,16.39,7.34,16.39,16.39h0c0,2.78-2.25,5.03-5.03,5.03h-11.36c-.99,0-1.8.8-1.8,1.8v64.11c0,.99.8,1.8,1.8,1.8h18.24c6.39,0,11.57-5.18,11.57-11.57V29.8c0-16.46-13.34-29.8-29.8-29.8Z"/>
    </g>
  </g>
</svg>